<?xml version="1.0" encoding="UTF-8"?>
<svg id="Layer_2" data-name="Layer 2" xmlns="http://www.w3.org/2000/svg" viewBox="0 0 219.01 42.37">
  <defs>
    <style>
      .cls-1 {
        fill: #f7b55e;
      }

      .cls-1, .cls-2, .cls-3, .cls-4 {
        stroke-width: 0px;
      }

      .cls-2 {
        fill: #f9a355;
      }

      .cls-3 {
        fill: #331c0c;
      }

      .cls-4 {
        fill: #e8863d;
      }
    </style>
  </defs>
  <g id="Layer_1-2" data-name="Layer 1">
    <g>
      <g>
        <path class="cls-1" d="M42.37,21.57c-.05,13.06-12.95,24.34-27.78,19.77-3.38-1.04,1.67-2.28,3.06-2.67,2.51-.66,4.91-1.71,7-3.24,6.98-5.18,11.29-14.53,11.41-23.17.08-1.11,0-2.42.45-3.42.81-1.21,2.1.63,2.65,1.39,2.37,3.59,3.2,8.1,3.19,11.34Z"/>
        <path class="cls-2" d="M33.09,17.12c-1.67,7.69-6.49,15.63-15.9,19.56-.44.19-.67.19-.61.03.01-.14.86-.97,1.26-1.36,1.75-1.69,5.12-6.29,6-8.58,3.71-9.2-1.92-19.85-11.45-22.63-.8-.33-1.23-.65-1.09-1.03.17-.44,1.13-1.21,1.99-1.53,2.76-1.04,6.9-1.95,10.38-1.41,2.12.33,7.39,1.32,8.89,4.33,2.02,4.07,1.19,9.54.52,12.63Z"/>
        <path class="cls-4" d="M13.09,36.32c-5.06,2.87-7.32.05-10.03-4.02-4.17-6.69-4.08-15.77.31-22.58,1.14-1.69,2.43-3.7,4.48-4.19,3.06-.52,6.47,1.47,8.72,3.34,4.6,3.96,7.15,10.85,4.93,16.69-1.21,3.19-4.31,8.61-8.41,10.76Z"/>
      </g>
      <g>
        <path class="cls-3" d="M55.7,31.19V8.49h7.43c2.36,0,4.4.48,6.14,1.43,1.74.96,3.08,2.28,4.04,3.98s1.43,3.67,1.43,5.93-.48,4.21-1.43,5.93-2.3,3.05-4.04,4.01c-1.74.96-3.78,1.43-6.14,1.43h-7.43ZM59.29,27.99h3.9c1.6,0,3-.33,4.17-1.01,1.18-.67,2.09-1.61,2.74-2.83s.98-2.66.98-4.33-.33-3.1-.98-4.31c-.65-1.21-1.56-2.15-2.74-2.82-1.18-.67-2.57-1-4.17-1h-3.9v16.3Z"/>
        <path class="cls-3" d="M89.27,31.55c-1.65,0-3.18-.29-4.6-.88-1.42-.59-2.66-1.41-3.72-2.47s-1.88-2.29-2.48-3.72c-.6-1.42-.9-2.98-.9-4.66s.29-3.24.88-4.66c.59-1.42,1.42-2.66,2.48-3.72,1.07-1.06,2.3-1.87,3.72-2.45,1.41-.58,2.95-.87,4.62-.87s3.2.29,4.62.88c1.41.59,2.65,1.41,3.72,2.45s1.89,2.28,2.48,3.7c.59,1.42.88,2.98.88,4.66s-.3,3.24-.9,4.66c-.6,1.42-1.43,2.66-2.48,3.72s-2.3,1.88-3.72,2.47-2.96.88-4.6.88ZM89.27,28.26c1.18,0,2.26-.21,3.25-.64.99-.43,1.84-1.02,2.57-1.78.73-.76,1.29-1.66,1.69-2.68s.59-2.14.59-3.34-.2-2.28-.59-3.31-.96-1.92-1.69-2.7c-.73-.77-1.59-1.37-2.57-1.78-.99-.42-2.07-.62-3.25-.62s-2.26.21-3.25.62c-.99.42-1.84,1.01-2.57,1.78-.73.77-1.29,1.67-1.69,2.7-.4,1.03-.59,2.13-.59,3.31s.2,2.31.59,3.34c.4,1.03.96,1.92,1.69,2.68s1.59,1.36,2.59,1.78c1,.43,2.07.64,3.23.64Z"/>
        <path class="cls-3" d="M108.07,31.19V11.69h-6v-3.2h15.54v3.2h-5.94v19.5h-3.59Z"/>
        <path class="cls-3" d="M118.46,31.19l8.35-22.7h2.01l8.35,22.7h-2.1l-2.07-5.79h-10.36l-2.07,5.79h-2.1ZM123.28,23.6h9.05l-4.88-13.59h.73l-4.91,13.59Z"/>
        <path class="cls-3" d="M147.74,31.55c-1.44,0-2.73-.27-3.87-.81-1.14-.54-2.09-1.26-2.85-2.16-.76-.9-1.3-1.87-1.63-2.91l1.77-.61c.55,1.54,1.39,2.72,2.51,3.53s2.48,1.22,4.07,1.22c1.02,0,1.92-.17,2.71-.52.79-.35,1.41-.83,1.86-1.46.45-.63.67-1.38.67-2.25,0-1.18-.33-2.09-.99-2.74-.66-.65-1.52-1.12-2.58-1.4l-4.14-1.22c-1.69-.49-2.93-1.27-3.73-2.36-.8-1.09-1.2-2.32-1.2-3.7,0-1.2.29-2.25.87-3.15.58-.9,1.37-1.61,2.36-2.12,1-.51,2.12-.76,3.38-.76s2.47.25,3.52.75c1.05.5,1.93,1.15,2.67,1.95.73.8,1.25,1.69,1.55,2.67l-1.74.64c-.51-1.4-1.29-2.46-2.35-3.18-1.06-.72-2.26-1.08-3.63-1.08-.91,0-1.73.17-2.44.52-.71.35-1.27.83-1.68,1.46s-.61,1.37-.61,2.22c0,1.04.29,1.92.88,2.67.59.74,1.57,1.32,2.96,1.72l3.75,1.13c1.62.49,2.88,1.23,3.76,2.22.88,1,1.33,2.22,1.33,3.69,0,1.2-.31,2.25-.93,3.15-.62.9-1.47,1.61-2.54,2.13-1.08.52-2.32.78-3.72.78Z"/>
        <path class="cls-3" d="M167.3,31.55c-1.44,0-2.73-.27-3.87-.81-1.14-.54-2.09-1.26-2.85-2.16-.76-.9-1.3-1.87-1.63-2.91l1.77-.61c.55,1.54,1.39,2.72,2.51,3.53s2.48,1.22,4.07,1.22c1.02,0,1.92-.17,2.71-.52.79-.35,1.41-.83,1.86-1.46.45-.63.67-1.38.67-2.25,0-1.18-.33-2.09-.99-2.74-.66-.65-1.52-1.12-2.58-1.4l-4.14-1.22c-1.69-.49-2.93-1.27-3.73-2.36-.8-1.09-1.2-2.32-1.2-3.7,0-1.2.29-2.25.87-3.15.58-.9,1.37-1.61,2.36-2.12,1-.51,2.12-.76,3.38-.76s2.47.25,3.52.75c1.05.5,1.93,1.15,2.67,1.95.73.8,1.25,1.69,1.55,2.67l-1.74.64c-.51-1.4-1.29-2.46-2.35-3.18-1.06-.72-2.26-1.08-3.63-1.08-.91,0-1.73.17-2.44.52-.71.35-1.27.83-1.68,1.46s-.61,1.37-.61,2.22c0,1.04.29,1.92.88,2.67.59.74,1.57,1.32,2.96,1.72l3.75,1.13c1.62.49,2.88,1.23,3.76,2.22.88,1,1.33,2.22,1.33,3.69,0,1.2-.31,2.25-.93,3.15-.62.9-1.47,1.61-2.54,2.13-1.08.52-2.32.78-3.72.78Z"/>
        <path class="cls-3" d="M179.52,31.19V8.49h1.95v22.7h-1.95Z"/>
        <path class="cls-3" d="M194.54,31.55c-1.44,0-2.73-.27-3.87-.81-1.14-.54-2.09-1.26-2.85-2.16-.76-.9-1.3-1.87-1.63-2.91l1.77-.61c.55,1.54,1.39,2.72,2.51,3.53s2.48,1.22,4.07,1.22c1.02,0,1.92-.17,2.71-.52.79-.35,1.41-.83,1.86-1.46.45-.63.67-1.38.67-2.25,0-1.18-.33-2.09-.99-2.74-.66-.65-1.52-1.12-2.58-1.4l-4.14-1.22c-1.69-.49-2.93-1.27-3.73-2.36-.8-1.09-1.2-2.32-1.2-3.7,0-1.2.29-2.25.87-3.15.58-.9,1.37-1.61,2.36-2.12,1-.51,2.12-.76,3.38-.76s2.47.25,3.52.75c1.05.5,1.93,1.15,2.67,1.95.73.8,1.25,1.69,1.55,2.67l-1.74.64c-.51-1.4-1.29-2.46-2.35-3.18-1.06-.72-2.26-1.08-3.63-1.08-.91,0-1.73.17-2.44.52-.71.35-1.27.83-1.68,1.46s-.61,1.37-.61,2.22c0,1.04.29,1.92.88,2.67.59.74,1.57,1.32,2.96,1.72l3.75,1.13c1.62.49,2.88,1.23,3.76,2.22.88,1,1.33,2.22,1.33,3.69,0,1.2-.31,2.25-.93,3.15-.62.9-1.47,1.61-2.54,2.13-1.08.52-2.32.78-3.72.78Z"/>
        <path class="cls-3" d="M210.75,31.19V10.32h-6.34v-1.83h14.6v1.83h-6.28v20.87h-1.98Z"/>
      </g>
    </g>
  </g>
</svg>