<?xml version="1.0" encoding="UTF-8"?>
<svg id="Layer_2" data-name="Layer 2" xmlns="http://www.w3.org/2000/svg" viewBox="0 0 109.76 109.76">
  <defs>
    <style>
      .cls-1 {
        fill: #f9a355;
      }

      .cls-1, .cls-2 {
        stroke-width: 0px;
      }

      .cls-2 {
        fill: #fff;
      }
    </style>
  </defs>
  <g id="Layer_1-2" data-name="Layer 1">
    <g>
      <circle class="cls-1" cx="54.88" cy="54.88" r="54.88"/>
      <g>
        <path class="cls-2" d="M77.38,29.49c15.84,13.65,16.16,41.08-4.83,54.37-4.78,3.03-1.05-4.41-.07-6.51,1.81-3.74,3.03-7.75,3.34-11.9.96-13.88-5.95-28.85-16.32-37.99-1.27-1.25-2.95-2.52-3.69-4.11-.63-2.24,2.95-1.9,4.45-1.78,6.83.85,13.18,4.52,17.12,7.92Z"/>
        <path class="cls-2" d="M62.32,36.16c7.63,10.03,12.27,24.15,7.26,39.69-.24.73-.46,1.01-.6.77-.15-.16-.29-2.06-.34-2.95-.24-3.89-2.33-12.77-4.21-16.23-7.34-14.09-26.15-18.31-39.45-9.61-1.23.63-2.07.81-2.38.25-.36-.67-.3-2.64.2-4.01,1.6-4.44,4.8-10.42,9.08-14.1,2.6-2.24,9.3-7.63,14.52-6.31,7.06,1.77,12.85,8.48,15.91,12.5Z"/>
        <path class="cls-2" d="M64.88,80.48c-1.77,9.14-7.55,8.96-15.33,8.03-12.47-1.88-23.43-11.43-27.16-23.86-.87-3.15-1.97-6.81-.44-9.82,2.55-4.27,8.51-6.34,13.14-7.13,9.61-1.47,20.64,2.59,25.44,11.35,2.63,4.79,6,14.21,4.35,21.42Z"/>
      </g>
    </g>
  </g>
</svg>